<svg width="24" height="24" viewBox="0 0 24 24" fill="none" xmlns="http://www.w3.org/2000/svg">
    <path d="M15.25 22.125C14.5625 22.125 13.974 21.8802 13.4844 21.3906C12.9948 20.901 12.75 20.3125 12.75 19.625C12.75 18.9375 12.9948 18.349 13.4844 17.8594C13.974 17.3698 14.5625 17.125 15.25 17.125C15.4896 17.125 15.7109 17.1536 15.9141 17.2109C16.1172 17.2682 16.3125 17.3542 16.5 17.4688V10.875H20.25V13.375H17.75V19.625C17.75 20.3125 17.5052 20.901 17.0156 21.3906C16.526 21.8802 15.9375 22.125 15.25 22.125Z" fill="#E8EAED"/>
    <path d="M12 22C10.6167 22 9.31667 21.7375 8.1 21.2125C6.88333 20.6875 5.825 19.975 4.925 19.075C4.025 18.175 3.3125 17.1167 2.7875 15.9C2.2625 14.6833 2 13.3833 2 12C2 10.6167 2.2625 9.31667 2.7875 8.1C3.3125 6.88333 4.025 5.825 4.925 4.925C5.825 4.025 6.88333 3.3125 8.1 2.7875C9.31667 2.2625 10.6167 2 12 2C14.4333 2 16.5625 2.7625 18.3875 4.2875C20.2125 5.8125 21.35 7.725 21.8 10.025H20.523C20.0678 10.025 19.6762 9.71493 19.521 9.28692C19.1864 8.36417 18.6919 7.5227 18.0375 6.7625C17.2125 5.80417 16.2 5.08333 15 4.6V5C15 5.55 14.8042 6.02083 14.4125 6.4125C14.0208 6.80417 13.55 7 13 7H11V9C11 9.28333 10.9042 9.52083 10.7125 9.7125C10.5208 9.90417 10.2833 10 10 10H8V12H10V15H9L4.2 10.2C4.15 10.5 4.10417 10.8 4.0625 11.1C4.02083 11.4 4 11.7 4 12C4 14.1833 4.76667 16.0583 6.3 17.625C7.60444 18.9578 9.17424 19.7297 11.0094 19.9407C11.5552 20.0035 12 20.4433 12 20.9927V22Z" fill="#E8EAED"/>
</svg>
